<svg xmlns="http://www.w3.org/2000/svg" xmlns:xlink="http://www.w3.org/1999/xlink" contentStyleType="text/css" height="327px" preserveAspectRatio="none" style="width:436px;height:327px;background:#FFFFFF;" version="1.1" viewBox="0 0 436 327" width="436px" zoomAndPan="magnify"><defs/><g><line style="stroke:#181818;stroke-width:0.5;stroke-dasharray:5.0,5.0;" x1="23" x2="23" y1="81.4883" y2="246.7305"/><line style="stroke:#181818;stroke-width:0.5;stroke-dasharray:5.0,5.0;" x1="176.0552" x2="176.0552" y1="81.4883" y2="246.7305"/><line style="stroke:#181818;stroke-width:0.5;stroke-dasharray:5.0,5.0;" x1="348.1719" x2="348.1719" y1="81.4883" y2="246.7305"/><line style="stroke:#181818;stroke-width:0.5;stroke-dasharray:5.0,5.0;" x1="417.0195" x2="417.0195" y1="81.4883" y2="246.7305"/><text fill="#000000" font-family="sans-serif" font-size="14" lengthAdjust="spacing" textLength="30.3652" x="5" y="78.5352">User</text><ellipse cx="23.1826" cy="13.5" fill="#E2E2F0" rx="8" ry="8" style="stroke:#181818;stroke-width:0.5;"/><path d="M23.1826,21.5 L23.1826,48.5 M10.1826,29.5 L36.1826,29.5 M23.1826,48.5 L10.1826,63.5 M23.1826,48.5 L36.1826,63.5 " fill="none" style="stroke:#181818;stroke-width:0.5;"/><text fill="#000000" font-family="sans-serif" font-size="14" lengthAdjust="spacing" textLength="30.3652" x="5" y="259.2656">User</text><ellipse cx="23.1826" cy="270.7188" fill="#E2E2F0" rx="8" ry="8" style="stroke:#181818;stroke-width:0.5;"/><path d="M23.1826,278.7188 L23.1826,305.7188 M10.1826,286.7188 L36.1826,286.7188 M23.1826,305.7188 L10.1826,320.7188 M23.1826,305.7188 L36.1826,320.7188 " fill="none" style="stroke:#181818;stroke-width:0.5;"/><rect fill="#E2E2F0" height="30.4883" rx="2.5" ry="2.5" style="stroke:#181818;stroke-width:0.5;" width="74.0332" x="139.0552" y="50"/><text fill="#000000" font-family="sans-serif" font-size="14" lengthAdjust="spacing" textLength="60.0332" x="146.0552" y="70.5352">streamlit</text><rect fill="#E2E2F0" height="30.4883" rx="2.5" ry="2.5" style="stroke:#181818;stroke-width:0.5;" width="74.0332" x="139.0552" y="245.7305"/><text fill="#000000" font-family="sans-serif" font-size="14" lengthAdjust="spacing" textLength="60.0332" x="146.0552" y="266.2656">streamlit</text><rect fill="#E2E2F0" height="30.4883" rx="2.5" ry="2.5" style="stroke:#181818;stroke-width:0.5;" width="45.2129" x="326.1719" y="50"/><text fill="#000000" font-family="sans-serif" font-size="14" lengthAdjust="spacing" textLength="31.2129" x="333.1719" y="70.5352">clips</text><rect fill="#E2E2F0" height="30.4883" rx="2.5" ry="2.5" style="stroke:#181818;stroke-width:0.5;" width="45.2129" x="326.1719" y="245.7305"/><text fill="#000000" font-family="sans-serif" font-size="14" lengthAdjust="spacing" textLength="31.2129" x="333.1719" y="266.2656">clips</text><rect fill="#E2E2F0" height="30.4883" rx="2.5" ry="2.5" style="stroke:#181818;stroke-width:0.5;" width="26.2842" x="404.0195" y="50"/><text fill="#000000" font-family="sans-serif" font-size="14" lengthAdjust="spacing" textLength="12.2842" x="411.0195" y="70.5352">fs</text><rect fill="#E2E2F0" height="30.4883" rx="2.5" ry="2.5" style="stroke:#181818;stroke-width:0.5;" width="26.2842" x="404.0195" y="245.7305"/><text fill="#000000" font-family="sans-serif" font-size="14" lengthAdjust="spacing" textLength="12.2842" x="411.0195" y="266.2656">fs</text><polygon fill="#181818" points="164.0718,108.7988,174.0718,112.7988,164.0718,116.7988,168.0718,112.7988" style="stroke:#181818;stroke-width:1.0;"/><line style="stroke:#181818;stroke-width:1.0;" x1="23.1826" x2="170.0718" y1="112.7988" y2="112.7988"/><text fill="#000000" font-family="sans-serif" font-size="13" lengthAdjust="spacing" textLength="128.8892" x="30.1826" y="108.0566">closes the chat page</text><polygon fill="#181818" points="336.7783,138.1094,346.7783,142.1094,336.7783,146.1094,340.7783,142.1094" style="stroke:#181818;stroke-width:1.0;"/><line style="stroke:#181818;stroke-width:1.0;" x1="176.0718" x2="342.7783" y1="142.1094" y2="142.1094"/><text fill="#000000" font-family="sans-serif" font-size="13" lengthAdjust="spacing" textLength="148.7065" x="183.0718" y="137.3672">queries for known facts</text><polygon fill="#181818" points="187.0718,152.1094,177.0718,156.1094,187.0718,160.1094,183.0718,156.1094" style="stroke:#181818;stroke-width:1.0;"/><line style="stroke:#181818;stroke-width:1.0;stroke-dasharray:2.0,2.0;" x1="181.0718" x2="347.7783" y1="156.1094" y2="156.1094"/><polygon fill="#181818" points="405.1616,181.4199,415.1616,185.4199,405.1616,189.4199,409.1616,185.4199" style="stroke:#181818;stroke-width:1.0;"/><line style="stroke:#181818;stroke-width:1.0;" x1="176.0718" x2="411.1616" y1="185.4199" y2="185.4199"/><text fill="#000000" font-family="sans-serif" font-size="13" lengthAdjust="spacing" textLength="217.0898" x="183.0718" y="180.6777">stores user session for later usage</text><polygon fill="#181818" points="187.0718,195.4199,177.0718,199.4199,187.0718,203.4199,183.0718,199.4199" style="stroke:#181818;stroke-width:1.0;"/><line style="stroke:#181818;stroke-width:1.0;stroke-dasharray:2.0,2.0;" x1="181.0718" x2="416.1616" y1="199.4199" y2="199.4199"/><polygon fill="#181818" points="336.7783,224.7305,346.7783,228.7305,336.7783,232.7305,340.7783,228.7305" style="stroke:#181818;stroke-width:1.0;"/><line style="stroke:#181818;stroke-width:1.0;" x1="176.0718" x2="342.7783" y1="228.7305" y2="228.7305"/><text fill="#000000" font-family="sans-serif" font-size="13" lengthAdjust="spacing" textLength="80.8818" x="183.0718" y="223.9883">stops engine</text><!--SRC=[TOx13S8m34Nldk8la0KGOWi6i2AdZGX9YHsnFWuzj4BYuYzPpz-FexMEkqe7AuOdqPm8DwXruMV9XWjYQIeAMmLnPSF6Yn0TXEEnv4qTVGtfsTdanO_QtXM9e-a9leQmqpyDQPwh2yck0d-fkTLlLM7ppT3vsC5m5lnZubMUKfTSXJu0]--></g></svg>