<svg xmlns="http://www.w3.org/2000/svg" xmlns:xlink="http://www.w3.org/1999/xlink" contentStyleType="text/css" height="460px" preserveAspectRatio="none" style="width:481px;height:460px;background:#FFFFFF;" version="1.1" viewBox="0 0 481 460" width="481px" zoomAndPan="magnify"><defs/><g><line style="stroke:#181818;stroke-width:0.5;stroke-dasharray:5.0,5.0;" x1="23" x2="23" y1="81.4883" y2="379.2832"/><line style="stroke:#181818;stroke-width:0.5;stroke-dasharray:5.0,5.0;" x1="170.0884" x2="170.0884" y1="81.4883" y2="379.2832"/><line style="stroke:#181818;stroke-width:0.5;stroke-dasharray:5.0,5.0;" x1="402.0625" x2="402.0625" y1="81.4883" y2="379.2832"/><line style="stroke:#181818;stroke-width:0.5;stroke-dasharray:5.0,5.0;" x1="452.2266" x2="452.2266" y1="81.4883" y2="379.2832"/><text fill="#000000" font-family="sans-serif" font-size="14" lengthAdjust="spacing" textLength="30.3652" x="5" y="78.5352">User</text><ellipse cx="23.1826" cy="13.5" fill="#E2E2F0" rx="8" ry="8" style="stroke:#181818;stroke-width:0.5;"/><path d="M23.1826,21.5 L23.1826,48.5 M10.1826,29.5 L36.1826,29.5 M23.1826,48.5 L10.1826,63.5 M23.1826,48.5 L36.1826,63.5 " fill="none" style="stroke:#181818;stroke-width:0.5;"/><text fill="#000000" font-family="sans-serif" font-size="14" lengthAdjust="spacing" textLength="30.3652" x="5" y="391.8184">User</text><ellipse cx="23.1826" cy="403.2715" fill="#E2E2F0" rx="8" ry="8" style="stroke:#181818;stroke-width:0.5;"/><path d="M23.1826,411.2715 L23.1826,438.2715 M10.1826,419.2715 L36.1826,419.2715 M23.1826,438.2715 L10.1826,453.2715 M23.1826,438.2715 L36.1826,453.2715 " fill="none" style="stroke:#181818;stroke-width:0.5;"/><rect fill="#E2E2F0" height="30.4883" rx="2.5" ry="2.5" style="stroke:#181818;stroke-width:0.5;" width="74.0332" x="133.0884" y="50"/><text fill="#000000" font-family="sans-serif" font-size="14" lengthAdjust="spacing" textLength="60.0332" x="140.0884" y="70.5352">streamlit</text><rect fill="#E2E2F0" height="30.4883" rx="2.5" ry="2.5" style="stroke:#181818;stroke-width:0.5;" width="74.0332" x="133.0884" y="378.2832"/><text fill="#000000" font-family="sans-serif" font-size="14" lengthAdjust="spacing" textLength="60.0332" x="140.0884" y="398.8184">streamlit</text><rect fill="#E2E2F0" height="30.4883" rx="2.5" ry="2.5" style="stroke:#181818;stroke-width:0.5;" width="35.1641" x="385.0625" y="50"/><text fill="#000000" font-family="sans-serif" font-size="14" lengthAdjust="spacing" textLength="21.1641" x="392.0625" y="70.5352">llm</text><rect fill="#E2E2F0" height="30.4883" rx="2.5" ry="2.5" style="stroke:#181818;stroke-width:0.5;" width="35.1641" x="385.0625" y="378.2832"/><text fill="#000000" font-family="sans-serif" font-size="14" lengthAdjust="spacing" textLength="21.1641" x="392.0625" y="398.8184">llm</text><rect fill="#E2E2F0" height="30.4883" rx="2.5" ry="2.5" style="stroke:#181818;stroke-width:0.5;" width="45.2129" x="430.2266" y="50"/><text fill="#000000" font-family="sans-serif" font-size="14" lengthAdjust="spacing" textLength="31.2129" x="437.2266" y="70.5352">clips</text><rect fill="#E2E2F0" height="30.4883" rx="2.5" ry="2.5" style="stroke:#181818;stroke-width:0.5;" width="45.2129" x="430.2266" y="378.2832"/><text fill="#000000" font-family="sans-serif" font-size="14" lengthAdjust="spacing" textLength="31.2129" x="437.2266" y="398.8184">clips</text><polygon fill="#181818" points="158.105,108.7988,168.105,112.7988,158.105,116.7988,162.105,112.7988" style="stroke:#181818;stroke-width:1.0;"/><line style="stroke:#181818;stroke-width:1.0;" x1="23.1826" x2="164.105" y1="112.7988" y2="112.7988"/><text fill="#000000" font-family="sans-serif" font-size="13" lengthAdjust="spacing" textLength="122.9224" x="30.1826" y="108.0566">enters the message</text><polygon fill="#181818" points="390.6445,153.4199,400.6445,157.4199,390.6445,161.4199,394.6445,157.4199" style="stroke:#181818;stroke-width:1.0;"/><line style="stroke:#181818;stroke-width:1.0;" x1="170.105" x2="396.6445" y1="157.4199" y2="157.4199"/><text fill="#000000" font-family="sans-serif" font-size="13" lengthAdjust="spacing" textLength="204.147" x="177.105" y="137.3672">asks for translation of the user's</text><text fill="#000000" font-family="sans-serif" font-size="13" lengthAdjust="spacing" textLength="150.9727" x="177.105" y="152.6777">message to Clips model</text><polygon fill="#181818" points="181.105,167.4199,171.105,171.4199,181.105,175.4199,177.105,171.4199" style="stroke:#181818;stroke-width:1.0;"/><line style="stroke:#181818;stroke-width:1.0;stroke-dasharray:2.0,2.0;" x1="175.105" x2="401.6445" y1="171.4199" y2="171.4199"/><polygon fill="#181818" points="440.833,196.7305,450.833,200.7305,440.833,204.7305,444.833,200.7305" style="stroke:#181818;stroke-width:1.0;"/><line style="stroke:#181818;stroke-width:1.0;" x1="170.105" x2="446.833" y1="200.7305" y2="200.7305"/><text fill="#000000" font-family="sans-serif" font-size="13" lengthAdjust="spacing" textLength="198.9419" x="177.105" y="195.9883">updates facts with the message</text><polygon fill="#181818" points="440.833,226.041,450.833,230.041,440.833,234.041,444.833,230.041" style="stroke:#181818;stroke-width:1.0;"/><line style="stroke:#181818;stroke-width:1.0;" x1="170.105" x2="446.833" y1="230.041" y2="230.041"/><text fill="#000000" font-family="sans-serif" font-size="13" lengthAdjust="spacing" textLength="129.2573" x="177.105" y="225.2988">triggers interference</text><polygon fill="#181818" points="440.833,255.3516,450.833,259.3516,440.833,263.3516,444.833,259.3516" style="stroke:#181818;stroke-width:1.0;"/><line style="stroke:#181818;stroke-width:1.0;" x1="170.105" x2="446.833" y1="259.3516" y2="259.3516"/><text fill="#000000" font-family="sans-serif" font-size="13" lengthAdjust="spacing" textLength="148.7065" x="177.105" y="254.6094">queries for known facts</text><polygon fill="#181818" points="181.105,269.3516,171.105,273.3516,181.105,277.3516,177.105,273.3516" style="stroke:#181818;stroke-width:1.0;"/><line style="stroke:#181818;stroke-width:1.0;stroke-dasharray:2.0,2.0;" x1="175.105" x2="451.833" y1="273.3516" y2="273.3516"/><polygon fill="#181818" points="390.6445,313.9727,400.6445,317.9727,390.6445,321.9727,394.6445,317.9727" style="stroke:#181818;stroke-width:1.0;"/><line style="stroke:#181818;stroke-width:1.0;" x1="170.105" x2="396.6445" y1="317.9727" y2="317.9727"/><text fill="#000000" font-family="sans-serif" font-size="13" lengthAdjust="spacing" textLength="208.5396" x="177.105" y="297.9199">asks for translation of Clips facts</text><text fill="#000000" font-family="sans-serif" font-size="13" lengthAdjust="spacing" textLength="174.3955" x="177.105" y="313.2305">to understandable message</text><polygon fill="#181818" points="181.105,327.9727,171.105,331.9727,181.105,335.9727,177.105,331.9727" style="stroke:#181818;stroke-width:1.0;"/><line style="stroke:#181818;stroke-width:1.0;stroke-dasharray:2.0,2.0;" x1="175.105" x2="401.6445" y1="331.9727" y2="331.9727"/><polygon fill="#181818" points="34.1826,357.2832,24.1826,361.2832,34.1826,365.2832,30.1826,361.2832" style="stroke:#181818;stroke-width:1.0;"/><line style="stroke:#181818;stroke-width:1.0;stroke-dasharray:2.0,2.0;" x1="28.1826" x2="169.105" y1="361.2832" y2="361.2832"/><text fill="#000000" font-family="sans-serif" font-size="13" lengthAdjust="spacing" textLength="42.1294" x="40.1826" y="356.541">replies</text><!--SRC=[bL4xRiCm3DrrYhTryWMCealFq2qBQzEE49boIHgvVYYxGDAYBT156lY-90rU5M_62Z9iyQVKNdGlC5UcfMH73nPdDVYPiR0PpPpIVHxWKfQ0aLqCKoYwabWXprLGfvtNP9_i99zyUCLhoQjXgIENr0IwHzTl1iEExR6j8pc72mrkk6O_Vqdr8ySrptFBdrkDYPLb-0NwiR5cFafSf5xbC7e0FtVTWVxN1ewgkzP9elecOmHoaf7Uopt-trk8mNwS7ifhYPWt]--></g></svg>