<svg xmlns="http://www.w3.org/2000/svg" xmlns:xlink="http://www.w3.org/1999/xlink" contentStyleType="text/css" height="400px" preserveAspectRatio="none" style="width:583px;height:400px;background:#FFFFFF;" version="1.1" viewBox="0 0 583 400" width="583px" zoomAndPan="magnify"><defs/><g><line style="stroke:#181818;stroke-width:0.5;stroke-dasharray:5.0,5.0;" x1="23" x2="23" y1="81.4883" y2="319.3516"/><line style="stroke:#181818;stroke-width:0.5;stroke-dasharray:5.0,5.0;" x1="175.2617" x2="175.2617" y1="81.4883" y2="319.3516"/><line style="stroke:#181818;stroke-width:0.5;stroke-dasharray:5.0,5.0;" x1="435.0117" x2="435.0117" y1="81.4883" y2="319.3516"/><line style="stroke:#181818;stroke-width:0.5;stroke-dasharray:5.0,5.0;" x1="508.7471" x2="508.7471" y1="81.4883" y2="319.3516"/><line style="stroke:#181818;stroke-width:0.5;stroke-dasharray:5.0,5.0;" x1="558.96" x2="558.96" y1="81.4883" y2="319.3516"/><text fill="#000000" font-family="sans-serif" font-size="14" lengthAdjust="spacing" textLength="30.3652" x="5" y="78.5352">User</text><ellipse cx="23.1826" cy="13.5" fill="#E2E2F0" rx="8" ry="8" style="stroke:#181818;stroke-width:0.5;"/><path d="M23.1826,21.5 L23.1826,48.5 M10.1826,29.5 L36.1826,29.5 M23.1826,48.5 L10.1826,63.5 M23.1826,48.5 L36.1826,63.5 " fill="none" style="stroke:#181818;stroke-width:0.5;"/><text fill="#000000" font-family="sans-serif" font-size="14" lengthAdjust="spacing" textLength="30.3652" x="5" y="331.8867">User</text><ellipse cx="23.1826" cy="343.3398" fill="#E2E2F0" rx="8" ry="8" style="stroke:#181818;stroke-width:0.5;"/><path d="M23.1826,351.3398 L23.1826,378.3398 M10.1826,359.3398 L36.1826,359.3398 M23.1826,378.3398 L10.1826,393.3398 M23.1826,378.3398 L36.1826,393.3398 " fill="none" style="stroke:#181818;stroke-width:0.5;"/><rect fill="#E2E2F0" height="30.4883" rx="2.5" ry="2.5" style="stroke:#181818;stroke-width:0.5;" width="74.0332" x="138.2617" y="50"/><text fill="#000000" font-family="sans-serif" font-size="14" lengthAdjust="spacing" textLength="60.0332" x="145.2617" y="70.5352">streamlit</text><rect fill="#E2E2F0" height="30.4883" rx="2.5" ry="2.5" style="stroke:#181818;stroke-width:0.5;" width="74.0332" x="138.2617" y="318.3516"/><text fill="#000000" font-family="sans-serif" font-size="14" lengthAdjust="spacing" textLength="60.0332" x="145.2617" y="338.8867">streamlit</text><rect fill="#E2E2F0" height="30.4883" rx="2.5" ry="2.5" style="stroke:#181818;stroke-width:0.5;" width="82.7354" x="394.0117" y="50"/><text fill="#000000" font-family="sans-serif" font-size="14" lengthAdjust="spacing" textLength="68.7354" x="401.0117" y="70.5352">filesystem</text><rect fill="#E2E2F0" height="30.4883" rx="2.5" ry="2.5" style="stroke:#181818;stroke-width:0.5;" width="82.7354" x="394.0117" y="318.3516"/><text fill="#000000" font-family="sans-serif" font-size="14" lengthAdjust="spacing" textLength="68.7354" x="401.0117" y="338.8867">filesystem</text><rect fill="#E2E2F0" height="30.4883" rx="2.5" ry="2.5" style="stroke:#181818;stroke-width:0.5;" width="45.2129" x="486.7471" y="50"/><text fill="#000000" font-family="sans-serif" font-size="14" lengthAdjust="spacing" textLength="31.2129" x="493.7471" y="70.5352">clips</text><rect fill="#E2E2F0" height="30.4883" rx="2.5" ry="2.5" style="stroke:#181818;stroke-width:0.5;" width="45.2129" x="486.7471" y="318.3516"/><text fill="#000000" font-family="sans-serif" font-size="14" lengthAdjust="spacing" textLength="31.2129" x="493.7471" y="338.8867">clips</text><rect fill="#E2E2F0" height="30.4883" rx="2.5" ry="2.5" style="stroke:#181818;stroke-width:0.5;" width="35.1641" x="541.96" y="50"/><text fill="#000000" font-family="sans-serif" font-size="14" lengthAdjust="spacing" textLength="21.1641" x="548.96" y="70.5352">llm</text><rect fill="#E2E2F0" height="30.4883" rx="2.5" ry="2.5" style="stroke:#181818;stroke-width:0.5;" width="35.1641" x="541.96" y="318.3516"/><text fill="#000000" font-family="sans-serif" font-size="14" lengthAdjust="spacing" textLength="21.1641" x="548.96" y="338.8867">llm</text><polygon fill="#181818" points="163.2783,108.7988,173.2783,112.7988,163.2783,116.7988,167.2783,112.7988" style="stroke:#181818;stroke-width:1.0;"/><line style="stroke:#181818;stroke-width:1.0;" x1="23.1826" x2="169.2783" y1="112.7988" y2="112.7988"/><text fill="#000000" font-family="sans-serif" font-size="13" lengthAdjust="spacing" textLength="128.0957" x="30.1826" y="108.0566">opens the chat page</text><polygon fill="#181818" points="423.3794,138.1094,433.3794,142.1094,423.3794,146.1094,427.3794,142.1094" style="stroke:#181818;stroke-width:1.0;"/><line style="stroke:#181818;stroke-width:1.0;" x1="175.2783" x2="429.3794" y1="142.1094" y2="142.1094"/><text fill="#000000" font-family="sans-serif" font-size="13" lengthAdjust="spacing" textLength="236.1011" x="182.2783" y="137.3672">loads the user last session if possible</text><polygon fill="#181818" points="186.2783,152.1094,176.2783,156.1094,186.2783,160.1094,182.2783,156.1094" style="stroke:#181818;stroke-width:1.0;"/><line style="stroke:#181818;stroke-width:1.0;stroke-dasharray:2.0,2.0;" x1="180.2783" x2="434.3794" y1="156.1094" y2="156.1094"/><polygon fill="#181818" points="497.3535,181.4199,507.3535,185.4199,497.3535,189.4199,501.3535,185.4199" style="stroke:#181818;stroke-width:1.0;"/><line style="stroke:#181818;stroke-width:1.0;" x1="175.2783" x2="503.3535" y1="185.4199" y2="185.4199"/><text fill="#000000" font-family="sans-serif" font-size="13" lengthAdjust="spacing" textLength="301.8818" x="182.2783" y="180.6777">starts engine and populate with the last session</text><polygon fill="#181818" points="497.3535,210.7305,507.3535,214.7305,497.3535,218.7305,501.3535,214.7305" style="stroke:#181818;stroke-width:1.0;"/><line style="stroke:#181818;stroke-width:1.0;" x1="175.2783" x2="503.3535" y1="214.7305" y2="214.7305"/><text fill="#000000" font-family="sans-serif" font-size="13" lengthAdjust="spacing" textLength="148.7065" x="182.2783" y="209.9883">queries for known facts</text><polygon fill="#181818" points="186.2783,224.7305,176.2783,228.7305,186.2783,232.7305,182.2783,228.7305" style="stroke:#181818;stroke-width:1.0;"/><line style="stroke:#181818;stroke-width:1.0;stroke-dasharray:2.0,2.0;" x1="180.2783" x2="508.3535" y1="228.7305" y2="228.7305"/><polygon fill="#181818" points="547.542,269.3516,557.542,273.3516,547.542,277.3516,551.542,273.3516" style="stroke:#181818;stroke-width:1.0;"/><line style="stroke:#181818;stroke-width:1.0;" x1="175.2783" x2="553.542" y1="273.3516" y2="273.3516"/><text fill="#000000" font-family="sans-serif" font-size="13" lengthAdjust="spacing" textLength="267.3125" x="182.2783" y="253.2988">passes down Clips model and known facts</text><text fill="#000000" font-family="sans-serif" font-size="13" lengthAdjust="spacing" textLength="215.6235" x="182.2783" y="268.6094">for getting a message for the user</text><polygon fill="#181818" points="186.2783,283.3516,176.2783,287.3516,186.2783,291.3516,182.2783,287.3516" style="stroke:#181818;stroke-width:1.0;"/><line style="stroke:#181818;stroke-width:1.0;stroke-dasharray:2.0,2.0;" x1="180.2783" x2="558.542" y1="287.3516" y2="287.3516"/><polygon fill="#181818" points="34.1826,297.3516,24.1826,301.3516,34.1826,305.3516,30.1826,301.3516" style="stroke:#181818;stroke-width:1.0;"/><line style="stroke:#181818;stroke-width:1.0;stroke-dasharray:2.0,2.0;" x1="28.1826" x2="174.2783" y1="301.3516" y2="301.3516"/><!--SRC=[TP11JiGm34NtESM_G2ymGcmu0xlPcDPjet6J4BiQSNkSZ101mIQEvE_tlqspvOfNvGfId5v3Q2-cPwXLfaEYuO9SE2biPymx6Gfj7BxxBbwZi7weyU5goRGyr9qbf0PbrPWJuegI_Vic78QXQJGCFzcpnAAELQDg2avRJ0nAYvFAAMICUxIz6uvUVrFUJwwH5QilValvdh3IR3g8dwRfeVwLGwGjLqYTZwLDldJcaHUMdcVWNLCpsDWifWs4mpFvrRhjrsL28_w_kJVw_IwV]--></g></svg>