<svg xmlns="http://www.w3.org/2000/svg" xmlns:xlink="http://www.w3.org/1999/xlink" contentStyleType="text/css" height="411px" preserveAspectRatio="none" style="width:773px;height:411px;background:#FFFFFF;" version="1.1" viewBox="0 0 773 411" width="773px" zoomAndPan="magnify"><defs/><g><!--entity user--><g id="elem_user"><ellipse cx="21.1826" cy="122.99" fill="#F1F1F1" rx="8" ry="8" style="stroke:#181818;stroke-width:0.5;"/><path d="M21.1826,130.99 L21.1826,157.99 M8.1826,138.99 L34.1826,138.99 M21.1826,157.99 L8.1826,172.99 M21.1826,157.99 L34.1826,172.99 " fill="none" style="stroke:#181818;stroke-width:0.5;"/><text fill="#000000" font-family="sans-serif" font-size="14" lengthAdjust="spacing" textLength="30.3652" x="6" y="188.0252">User</text></g><!--entity streamlit--><g id="elem_streamlit"><rect fill="#F1F1F1" height="46.4883" rx="2.5" ry="2.5" style="stroke:#181818;stroke-width:0.5;" width="100.0332" x="231.17" y="129.49"/><rect fill="#F1F1F1" height="10" style="stroke:#181818;stroke-width:0.5;" width="15" x="311.2032" y="134.49"/><rect fill="#F1F1F1" height="2" style="stroke:#181818;stroke-width:0.5;" width="4" x="309.2032" y="136.49"/><rect fill="#F1F1F1" height="2" style="stroke:#181818;stroke-width:0.5;" width="4" x="309.2032" y="140.49"/><text fill="#000000" font-family="sans-serif" font-size="14" lengthAdjust="spacing" textLength="60.0332" x="246.17" y="163.0252">streamlit</text></g><!--entity filesystem--><g id="elem_filesystem"><rect fill="#F1F1F1" height="46.4883" rx="2.5" ry="2.5" style="stroke:#181818;stroke-width:0.5;" width="108.7354" x="214.81" y="7"/><rect fill="#F1F1F1" height="10" style="stroke:#181818;stroke-width:0.5;" width="15" x="303.5454" y="12"/><rect fill="#F1F1F1" height="2" style="stroke:#181818;stroke-width:0.5;" width="4" x="301.5454" y="14"/><rect fill="#F1F1F1" height="2" style="stroke:#181818;stroke-width:0.5;" width="4" x="301.5454" y="18"/><text fill="#000000" font-family="sans-serif" font-size="14" lengthAdjust="spacing" textLength="68.7354" x="229.81" y="40.5352">filesystem</text></g><!--entity clips--><g id="elem_clips"><rect fill="#F1F1F1" height="46.4883" rx="2.5" ry="2.5" style="stroke:#181818;stroke-width:0.5;" width="71.2129" x="605.58" y="129.49"/><rect fill="#F1F1F1" height="10" style="stroke:#181818;stroke-width:0.5;" width="15" x="656.7929" y="134.49"/><rect fill="#F1F1F1" height="2" style="stroke:#181818;stroke-width:0.5;" width="4" x="654.7929" y="136.49"/><rect fill="#F1F1F1" height="2" style="stroke:#181818;stroke-width:0.5;" width="4" x="654.7929" y="140.49"/><text fill="#000000" font-family="sans-serif" font-size="14" lengthAdjust="spacing" textLength="31.2129" x="620.58" y="163.0252">clips</text></g><!--entity llm--><g id="elem_llm"><rect fill="#F1F1F1" height="46.4883" rx="2.5" ry="2.5" style="stroke:#181818;stroke-width:0.5;" width="61.1641" x="35.6" y="251.97"/><rect fill="#F1F1F1" height="10" style="stroke:#181818;stroke-width:0.5;" width="15" x="76.7641" y="256.97"/><rect fill="#F1F1F1" height="2" style="stroke:#181818;stroke-width:0.5;" width="4" x="74.7641" y="258.97"/><rect fill="#F1F1F1" height="2" style="stroke:#181818;stroke-width:0.5;" width="4" x="74.7641" y="262.97"/><text fill="#000000" font-family="sans-serif" font-size="14" lengthAdjust="spacing" textLength="21.1641" x="50.6" y="285.5052">llm</text></g><!--entity tax office--><g id="elem_tax office"><rect fill="#F1F1F1" height="46.4883" rx="2.5" ry="2.5" style="stroke:#181818;stroke-width:0.5;" width="103.8955" x="545.23" y="359.46"/><rect fill="#F1F1F1" height="10" style="stroke:#181818;stroke-width:0.5;" width="15" x="629.1255" y="364.46"/><rect fill="#F1F1F1" height="2" style="stroke:#181818;stroke-width:0.5;" width="4" x="627.1255" y="366.46"/><rect fill="#F1F1F1" height="2" style="stroke:#181818;stroke-width:0.5;" width="4" x="627.1255" y="370.46"/><text fill="#000000" font-family="sans-serif" font-size="14" lengthAdjust="spacing" textLength="63.8955" x="560.23" y="392.9952">tax office</text></g><g id="elem_GMN14"><path d="M358.27,17.59 L358.27,26.24 L323.94,30.24 L358.27,34.24 L358.27,42.9005 A0,0 0 0 0 358.27,42.9005 L506.0962,42.9005 A0,0 0 0 0 506.0962,42.9005 L506.0962,27.59 L496.0962,17.59 L358.27,17.59 A0,0 0 0 0 358.27,17.59 " fill="#FEFFDD" style="stroke:#181818;stroke-width:0.5;"/><path d="M496.0962,17.59 L496.0962,27.59 L506.0962,27.59 L496.0962,17.59 " fill="#FEFFDD" style="stroke:#181818;stroke-width:0.5;"/><text fill="#000000" font-family="sans-serif" font-size="13" lengthAdjust="spacing" textLength="126.8262" x="364.27" y="35.1584">Keeps user sessions</text></g><g id="elem_GMN17"><path d="M131.74,254.91 L131.74,271.22 L96.94,275.22 L131.74,279.22 L131.74,295.5311 A0,0 0 0 0 131.74,295.5311 L500.6233,295.5311 A0,0 0 0 0 500.6233,295.5311 L500.6233,264.91 L490.6233,254.91 L131.74,254.91 A0,0 0 0 0 131.74,254.91 " fill="#FEFFDD" style="stroke:#181818;stroke-width:0.5;"/><path d="M490.6233,254.91 L490.6233,264.91 L500.6233,264.91 L490.6233,254.91 " fill="#FEFFDD" style="stroke:#181818;stroke-width:0.5;"/><text fill="#000000" font-family="sans-serif" font-size="13" lengthAdjust="spacing" textLength="236.7739" x="137.74" y="272.4784">- Translates user input to Clips rules.</text><text fill="#000000" font-family="sans-serif" font-size="13" lengthAdjust="spacing" textLength="347.8833" x="137.74" y="287.7889">- Generates understandable messages from Clips rules</text></g><g id="elem_GMN20"><path d="M541.34,9.93 L541.34,50.5511 A0,0 0 0 0 541.34,50.5511 L647.23,50.5511 L643.42,129.24 L655.23,50.5511 L765.027,50.5511 A0,0 0 0 0 765.027,50.5511 L765.027,19.93 L755.027,9.93 L541.34,9.93 A0,0 0 0 0 541.34,9.93 " fill="#FEFFDD" style="stroke:#181818;stroke-width:0.5;"/><path d="M755.027,9.93 L755.027,19.93 L765.027,19.93 L755.027,9.93 " fill="#FEFFDD" style="stroke:#181818;stroke-width:0.5;"/><text fill="#000000" font-family="sans-serif" font-size="13" lengthAdjust="spacing" textLength="160.9321" x="547.34" y="27.4984">- Prevents hallucinations!</text><text fill="#000000" font-family="sans-serif" font-size="13" lengthAdjust="spacing" textLength="202.687" x="547.34" y="42.8089">- Ensures compliance to the law</text></g><!--link user to streamlit--><g id="link_user_streamlit"><path d="M36.67,152.73 C74.11,152.73 170.88,152.73 230.84,152.73 " fill="none" id="user-streamlit" style="stroke:#181818;stroke-width:1.0;"/><text fill="#000000" font-family="sans-serif" font-size="13" lengthAdjust="spacing" textLength="158.9897" x="54.77" y="146.2984">uses via the web browser</text></g><!--link filesystem to streamlit--><g id="link_filesystem_streamlit"><path d="M271.44,53.9 C273.59,75.45 276.79,107.66 278.94,129.17 " fill="none" id="filesystem-streamlit" style="stroke:#181818;stroke-width:1.0;"/></g><!--link streamlit to clips--><g id="link_streamlit_clips"><path d="M331.62,152.73 C405.35,152.73 540.77,152.73 605.24,152.73 " fill="none" id="streamlit-clips" style="stroke:#181818;stroke-width:1.0;"/><text fill="#000000" font-family="sans-serif" font-size="13" lengthAdjust="spacing" textLength="214.1636" x="361.39" y="146.2984">one environment per user session</text></g><!--link streamlit to llm--><g id="link_streamlit_llm"><path d="M240.74,176.39 C199.02,199.77 134.86,235.73 97.05,256.92 " fill="none" id="streamlit-llm" style="stroke:#181818;stroke-width:1.0;"/></g><!--link streamlit to tax office--><g id="link_streamlit_tax office"><path d="M331.41,164.75 C383.03,178.16 463.39,205.03 518.18,251.97 C552.83,281.66 574.4285,324.929 586.2785,353.459 " fill="none" id="streamlit-to-tax office" style="stroke:#181818;stroke-width:1.0;"/><polygon fill="#181818" points="588.58,359,588.8218,349.1541,586.6621,354.3825,581.4337,352.2228,588.58,359" style="stroke:#181818;stroke-width:1.0;"/></g><!--link clips to tax office--><g id="link_clips_tax office"><path d="M636.8,176.42 C628.37,220.12 611.0972,309.5888 602.6772,353.2088 " fill="none" id="clips-to-tax office" style="stroke:#181818;stroke-width:1.0;stroke-dasharray:7.0,7.0;"/><polygon fill="#181818" points="601.54,359.1,607.1733,351.0213,602.4877,354.1906,599.3183,349.505,601.54,359.1" style="stroke:#181818;stroke-width:1.0;"/><text fill="#000000" font-family="sans-serif" font-size="13" lengthAdjust="spacing" textLength="142.8604" x="623.11" y="280.2884">provides financial data</text></g><!--SRC=[PL6zJWCn3Dxp5EO1hW_0m88G0mi3J5K7zyxNHagSoFPTuUrnqahqO4c6xp_1qOh0fv80AYn-Xz1E662l9eGvHJl0OuCKreXWPu8B7U4evTBe-pacqcyroWSODh9mR-78c6BLPbQOW7YDKZWJ6rGFxAaUeh7mLkZAbF8Vjs5uWhtX5vHvZYCvUdFVxRQ0nrKfQvoy_nmPUOoOO4B34BWOWSJJsPmDzqi2m1jHrKqj3SGJDD4_QIy8Fl93a3MXqKqQkIu6Lk2vrGDPF6BNcQ_495SYJoHgo1CU4q7sD3orkbBolUvll9NQmw_Bk-cxqEelgd36b9RHzreh_j315zP5t7SikQReBz4i-eSclFoQ_m00]--></g></svg>